<?xml version="1.0" standalone="no"?>
<!DOCTYPE svg PUBLIC "-//W3C//DTD SVG 20010904//EN"
 "http://www.w3.org/TR/2001/REC-SVG-20010904/DTD/svg10.dtd">
<svg version="1.0" xmlns="http://www.w3.org/2000/svg"
 width="250.000000pt" height="167.000000pt" viewBox="0 0 250.000000 167.000000"
 preserveAspectRatio="xMidYMid meet">

<g transform="translate(0.000000,167.000000) scale(0.100000,-0.100000)"
fill="#000000" stroke="none">
<path d="M1100 1530 l0 -60 60 0 60 0 0 60 0 60 -60 0 -60 0 0 -60z m110 0 l0
-50 -50 0 -50 0 0 50 0 50 50 0 50 0 0 -50z"/>
<path d="M1100 1390 l0 -60 60 0 60 0 0 60 0 60 -60 0 -60 0 0 -60z m110 0 l0
-50 -50 0 -50 0 0 50 0 50 50 0 50 0 0 -50z"/>
<path d="M1100 1250 l0 -60 60 0 60 0 0 60 0 60 -60 0 -60 0 0 -60z m110 0 l0
-50 -50 0 -50 0 0 50 0 50 50 0 50 0 0 -50z"/>
<path d="M1240 1250 l0 -60 60 0 60 0 0 60 0 60 -60 0 -60 0 0 -60z m110 0 l0
-50 -50 0 -50 0 0 50 0 50 50 0 50 0 0 -50z"/>
<path d="M1380 1250 l0 -60 60 0 60 0 0 60 0 60 -60 0 -60 0 0 -60z m110 0 l0
-50 -50 0 -50 0 0 50 0 50 50 0 50 0 0 -50z"/>
<path d="M850 1110 l0 -60 60 0 60 0 0 60 0 60 -60 0 -60 0 0 -60z m110 0 l0
-50 -50 0 -50 0 0 50 0 50 50 0 50 0 0 -50z"/>
<path d="M1100 1110 l0 -60 60 0 60 0 0 60 0 60 -60 0 -60 0 0 -60z m110 0 l0
-50 -50 0 -50 0 0 50 0 50 50 0 50 0 0 -50z"/>
<path d="M1240 1110 l0 -60 60 0 60 0 0 60 0 60 -60 0 -60 0 0 -60z m110 0 l0
-50 -50 0 -50 0 0 50 0 50 50 0 50 0 0 -50z"/>
<path d="M1380 1110 l0 -60 60 0 60 0 0 60 0 60 -60 0 -60 0 0 -60z m110 0 l0
-50 -50 0 -50 0 0 50 0 50 50 0 50 0 0 -50z"/>
<path d="M1520 1110 l0 -60 60 0 60 0 0 60 0 60 -60 0 -60 0 0 -60z m110 0 l0
-50 -50 0 -50 0 0 50 0 50 50 0 50 0 0 -50z"/>
<path d="M960 970 l0 -60 60 0 60 0 0 60 0 60 -60 0 -60 0 0 -60z m110 0 l0
-50 -50 0 -50 0 0 50 0 50 50 0 50 0 0 -50z"/>
<path d="M1100 970 l0 -60 60 0 60 0 0 60 0 60 -60 0 -60 0 0 -60z m110 0 l0
-50 -50 0 -50 0 0 50 0 50 50 0 50 0 0 -50z"/>
<path d="M1240 970 l0 -60 60 0 60 0 0 60 0 60 -60 0 -60 0 0 -60z m110 0 l0
-50 -50 0 -50 0 0 50 0 50 50 0 50 0 0 -50z"/>
<path d="M1380 970 l0 -60 60 0 60 0 0 60 0 60 -60 0 -60 0 0 -60z m110 0 l0
-50 -50 0 -50 0 0 50 0 50 50 0 50 0 0 -50z"/>
<path d="M1520 970 l0 -60 60 0 60 0 0 60 0 60 -60 0 -60 0 0 -60z m110 0 l0
-50 -50 0 -50 0 0 50 0 50 50 0 50 0 0 -50z"/>
<path d="M1100 830 l0 -60 60 0 60 0 0 60 0 60 -60 0 -60 0 0 -60z m110 0 l0
-50 -50 0 -50 0 0 50 0 50 50 0 50 0 0 -50z"/>
<path d="M1240 830 l0 -60 60 0 60 0 0 60 0 60 -60 0 -60 0 0 -60z m110 0 l0
-50 -50 0 -50 0 0 50 0 50 50 0 50 0 0 -50z"/>
<path d="M1380 830 l0 -60 60 0 60 0 0 60 0 60 -60 0 -60 0 0 -60z m110 0 l0
-50 -50 0 -50 0 0 50 0 50 50 0 50 0 0 -50z"/>
<path d="M1520 830 l0 -60 60 0 60 0 0 60 0 60 -60 0 -60 0 0 -60z m110 0 l0
-50 -50 0 -50 0 0 50 0 50 50 0 50 0 0 -50z"/>
<path d="M1240 690 l0 -60 60 0 60 0 0 60 0 60 -60 0 -60 0 0 -60z m110 0 l0
-50 -50 0 -50 0 0 50 0 50 50 0 50 0 0 -50z"/>
<path d="M1380 690 l0 -60 60 0 60 0 0 60 0 60 -60 0 -60 0 0 -60z m110 0 l0
-50 -50 0 -50 0 0 50 0 50 50 0 50 0 0 -50z"/>
<path d="M670 365 l0 -225 55 0 55 0 0 150 0 150 45 0 45 0 0 -150 0 -150 55
0 55 0 0 160 0 160 -25 0 c-16 0 -25 6 -25 15 0 12 -15 15 -75 15 l-75 0 0 50
0 50 -55 0 -55 0 0 -225z m100 165 l0 -50 75 0 c60 0 75 -3 75 -15 0 -9 9 -15
25 -15 l25 0 0 -150 0 -150 -45 0 -45 0 0 150 0 150 -55 0 -55 0 0 -150 0
-150 -45 0 -45 0 0 215 0 215 45 0 45 0 0 -50z"/>
<path d="M1750 565 c0 -20 -5 -25 -25 -25 -20 0 -25 -5 -25 -25 0 -21 -5 -25
-30 -25 -25 0 -30 -4 -30 -25 0 -21 5 -25 30 -25 l30 0 0 -150 0 -150 55 0 55
0 0 150 0 150 30 0 c25 0 30 4 30 25 0 21 -5 25 -30 25 -23 0 -30 4 -30 20 0
17 7 20 50 20 49 0 50 1 50 30 l0 30 -80 0 c-79 0 -80 0 -80 -25z m150 -5 c0
-17 -7 -20 -50 -20 -49 0 -50 -1 -50 -30 0 -27 3 -30 30 -30 20 0 30 -5 30
-15 0 -10 -10 -15 -30 -15 l-30 0 0 -150 0 -150 -45 0 -45 0 0 150 0 150 -30
0 c-20 0 -30 5 -30 15 0 10 10 15 30 15 25 0 30 4 30 25 0 20 5 25 25 25 20 0
25 5 25 25 0 24 2 25 70 25 63 0 70 -2 70 -20z"/>
<path d="M380 465 c0 -20 -5 -25 -25 -25 -21 0 -25 -5 -25 -30 0 -27 3 -30 30
-30 25 0 30 4 30 25 0 24 2 25 70 25 l70 0 0 -40 0 -40 -75 0 c-73 0 -75 -1
-75 -25 0 -20 -5 -25 -25 -25 -24 0 -25 -3 -25 -55 0 -52 1 -55 25 -55 20 0
25 -5 25 -25 l0 -25 130 0 130 0 0 155 0 155 -25 0 c-18 0 -25 5 -25 20 0 19
-7 20 -105 20 l-105 0 0 -25z m200 -5 c0 -15 7 -20 25 -20 l25 0 0 -145 0
-145 -120 0 -120 0 0 25 c0 20 -5 25 -25 25 -23 0 -25 4 -25 45 0 41 2 45 25
45 20 0 25 5 25 25 0 24 2 25 75 25 l75 0 0 50 0 50 -75 0 c-68 0 -75 2 -75
20 0 19 7 20 95 20 88 0 95 -1 95 -20z m-200 -50 c0 -13 -7 -20 -20 -20 -13 0
-20 7 -20 20 0 13 7 20 20 20 13 0 20 -7 20 -20z"/>
<path d="M430 245 l0 -55 55 0 55 0 0 55 0 55 -55 0 -55 0 0 -55z m100 0 l0
-45 -45 0 -45 0 0 45 0 45 45 0 45 0 0 -45z"/>
<path d="M1020 315 l0 -175 55 0 55 0 0 125 0 125 70 0 70 0 0 50 0 50 -50 0
c-47 0 -50 -2 -50 -25 0 -20 -5 -25 -25 -25 -20 0 -25 5 -25 25 0 23 -3 25
-50 25 l-50 0 0 -175z m90 140 c0 -22 4 -25 35 -25 31 0 35 3 35 25 0 23 4 25
40 25 l40 0 0 -40 0 -40 -70 0 -70 0 0 -125 0 -125 -45 0 -45 0 0 165 0 165
40 0 c36 0 40 -2 40 -25z"/>
<path d="M1380 465 c0 -22 -4 -25 -35 -25 l-35 0 0 -125 0 -125 35 0 c31 0 35
-3 35 -25 0 -25 0 -25 95 -25 95 0 95 0 95 25 0 20 5 25 25 25 21 0 25 5 25
30 0 27 -3 30 -30 30 -25 0 -30 -4 -30 -25 0 -24 -2 -25 -70 -25 l-70 0 0 45
0 45 95 0 95 0 0 75 c0 73 -1 75 -25 75 -20 0 -25 5 -25 25 0 25 -1 25 -90 25
-89 0 -90 0 -90 -25z m170 -10 c0 -20 5 -25 25 -25 24 0 25 -2 25 -65 l0 -65
-95 0 -95 0 0 -55 0 -55 70 0 c63 0 70 -2 70 -20 0 -18 -7 -20 -80 -20 -79 0
-80 0 -80 25 0 22 -4 25 -35 25 l-35 0 0 115 0 115 35 0 c31 0 35 3 35 25 0
25 1 25 80 25 79 0 80 0 80 -25z m60 -235 c0 -13 -7 -20 -20 -20 -13 0 -20 7
-20 20 0 13 7 20 20 20 13 0 20 -7 20 -20z"/>
<path d="M1410 390 l0 -60 55 0 55 0 0 60 0 60 -55 0 -55 0 0 -60z m100 0 l0
-50 -45 0 -45 0 0 50 0 50 45 0 45 0 0 -50z"/>
<path d="M1960 465 c0 -20 -5 -25 -25 -25 -23 0 -25 -3 -25 -50 0 -47 2 -50
25 -50 20 0 25 -5 25 -25 0 -20 5 -25 25 -25 20 0 25 -5 25 -25 0 -20 5 -25
25 -25 18 0 25 -5 25 -20 0 -17 -7 -20 -45 -20 -41 0 -45 2 -45 25 0 21 -5 25
-30 25 -27 0 -30 -3 -30 -30 0 -25 4 -30 25 -30 20 0 25 -5 25 -25 0 -24 2
-25 75 -25 73 0 75 1 75 25 0 20 5 25 25 25 24 0 25 3 25 55 0 52 -1 55 -25
55 -18 0 -25 5 -25 20 0 15 -7 20 -25 20 -21 0 -25 5 -25 30 0 25 -4 30 -25
30 -18 0 -25 5 -25 20 0 17 7 20 45 20 41 0 45 -2 45 -25 0 -21 5 -25 30 -25
27 0 30 3 30 30 0 25 -4 30 -25 30 -18 0 -25 5 -25 20 0 18 -7 20 -75 20 -73
0 -75 -1 -75 -25z m140 0 c0 -11 -12 -15 -50 -15 -49 0 -50 -1 -50 -30 0 -25
4 -30 25 -30 21 0 25 -5 25 -30 0 -25 4 -30 25 -30 18 0 25 -5 25 -20 0 -15 7
-20 25 -20 23 0 25 -4 25 -45 0 -41 -2 -45 -25 -45 -20 0 -25 -5 -25 -25 0
-24 -2 -25 -65 -25 -58 0 -65 2 -65 20 0 17 7 20 50 20 49 0 50 1 50 30 0 25
-4 30 -25 30 -20 0 -25 5 -25 25 0 20 -5 25 -25 25 -20 0 -25 5 -25 25 0 20
-5 25 -25 25 -22 0 -25 4 -25 40 0 36 3 40 25 40 20 0 25 5 25 25 0 24 2 25
65 25 51 0 65 -3 65 -15z m50 -45 c0 -13 -7 -20 -20 -20 -13 0 -20 7 -20 20 0
13 7 20 20 20 13 0 20 -7 20 -20z m-190 -200 c0 -13 -7 -20 -20 -20 -13 0 -20
7 -20 20 0 13 7 20 20 20 13 0 20 -7 20 -20z"/>
</g>
</svg>
